<svg width="38" height="43" viewBox="0 0 38 43" fill="none" xmlns="http://www.w3.org/2000/svg">
<path fill-rule="evenodd" clip-rule="evenodd" d="M13.1538 1.51442e-07H21.0578C24.6396 1.51442e-07 27.4769 1.49012e-07 29.6965 0.306C31.9804 0.622 33.8297 1.286 35.2893 2.782C36.747 4.28 37.3939 6.178 37.7018 8.522C38 10.802 38 13.712 38 17.388V29.5C38.0003 31.2869 37.379 33.0153 36.2479 34.3738C35.1168 35.7323 33.5502 36.6317 31.8304 36.91C31.5634 38.438 31.047 39.742 30.0142 40.804C28.841 42.008 27.3639 42.524 25.6101 42.768C23.9205 43 21.7711 43 19.1072 43H13.0467C10.3828 43 8.23333 43 6.54379 42.768C4.78995 42.524 3.31282 42.008 2.13969 40.804C0.966563 39.6 0.463793 38.084 0.22605 36.284C-1.56959e-06 34.55 -5.96046e-08 32.344 -5.96046e-08 29.61V19.39C-5.96046e-08 16.656 -1.56959e-06 14.45 0.22605 12.716C0.463793 10.916 0.966563 9.4 2.13969 8.196C3.17446 7.136 4.44503 6.606 5.93385 6.332C6.205 4.56685 7.08132 2.95907 8.405 1.7982C9.72868 0.637319 11.4127 -0.00035878 13.1538 1.51442e-07ZM9.00308 6.042C9.2994 5.154 9.85886 4.38332 10.6031 3.83785C11.3474 3.29238 12.2393 2.99943 13.1538 3H20.9487C24.6649 3 27.3035 3.004 29.3087 3.28C31.2672 3.55 32.3974 4.058 33.2217 4.904C34.0461 5.75 34.541 6.91 34.8041 8.92C35.073 10.978 35.0769 13.686 35.0769 17.5V29.5C35.0775 30.4386 34.792 31.354 34.2606 32.1178C33.7291 32.8817 32.9782 33.4559 32.1129 33.76C32.1538 32.54 32.1538 31.16 32.1538 29.61V19.39C32.1538 16.656 32.1538 14.45 31.9258 12.716C31.692 10.916 31.1853 9.4 30.0142 8.196C28.841 6.992 27.3639 6.476 25.6101 6.234C23.9205 6 21.7711 6 19.1072 6H13.0467C11.5364 6 10.1918 6 9.00308 6.042ZM27.9485 10.32C27.4087 9.766 26.6526 9.406 25.2203 9.208C23.751 9.006 21.7984 9.002 19.0019 9.002H13.1558C10.3594 9.002 8.40872 9.006 6.93549 9.208C5.50513 9.406 4.74903 9.768 4.20923 10.32C3.66944 10.874 3.31867 11.65 3.12574 13.12C2.92892 14.628 2.92502 16.632 2.92502 19.502V29.502C2.92502 32.372 2.92892 34.374 3.12574 35.886C3.31867 37.354 3.67138 38.13 4.20923 38.684C4.74903 39.238 5.50513 39.598 6.93743 39.796C8.40872 39.998 10.3594 40.002 13.1558 40.002H19.0019C21.7984 40.002 23.751 39.998 25.2223 39.796C26.6526 39.598 27.4087 39.236 27.9485 38.684C28.4883 38.13 28.8391 37.354 29.032 35.884C29.2288 34.374 29.2327 32.372 29.2327 29.502V19.502C29.2327 16.632 29.2288 14.628 29.032 13.118C28.8391 11.65 28.4864 10.874 27.9485 10.32Z" fill="#262424"/>
</svg>
